# xmcd
#
# Track frame offsets:
#	150
#	21828
#	41257
#	58211
#	74339
#	98717
#	114396
#	132849
#	152127
#	165330
#
# Disc length: 2521 seconds
#
# Revision: 1
# Processed by: cddbd v1.4PL0 Copyright (c) Steve Scherf et al.
# Submitted via: audiograbber 1.81.03
#
DISCID=7b09d70a
DTITLE=The Lonnie Brooks Blues Band - Bayou Lightning
DYEAR=1979
DGENRE=Blues
TTITLE0=Voodoo Daddy
TTITLE1=Figure Head
TTITLE2=Watchdog
TTITLE3=Brealfast In Bed
TTITLE4=In The Dark
TTITLE5=Worked Up Woman
TTITLE6=Alimony
TTITLE7=Watch What You Got
TTITLE8=I Ain't Superstitious
TTITLE9=You Know What My Body Needs
EXTD=
EXTT0=
EXTT1=
EXTT2=
EXTT3=
EXTT4=
EXTT5=
EXTT6=
EXTT7=
EXTT8=
EXTT9=
PLAYORDER=
